<?xml version="1.0" standalone="no"?>
<!DOCTYPE svg PUBLIC "-//W3C//DTD SVG 20010904//EN"
 "http://www.w3.org/TR/2001/REC-SVG-20010904/DTD/svg10.dtd">
<svg version="1.0" xmlns="http://www.w3.org/2000/svg"
 width="962.000000pt" height="378.000000pt" viewBox="0 0 962.000000 378.000000"
 preserveAspectRatio="xMidYMid meet">

<g transform="translate(0.000000,378.000000) scale(0.100000,-0.100000)"
fill="#000000" stroke="none">
<path d="M3805 2798 c-3 -7 -4 -438 -3 -958 l3 -945 25 0 25 0 3 958 2 957
-25 0 c-14 0 -28 -6 -30 -12z"/>
<path d="M552 1968 l3 -383 47 -3 48 -3 2 183 3 183 118 3 117 3 0 49 0 50
-120 0 -121 0 3 98 3 97 153 3 152 3 0 49 0 50 -205 0 -205 0 2 -382z"/>
<path d="M1097 2310 c-18 -14 -27 -31 -27 -50 0 -38 44 -74 80 -65 32 8 50 31
50 65 0 58 -57 86 -103 50z"/>
<path d="M5960 1945 l0 -316 58 3 57 3 5 94 5 94 45 -50 c25 -27 63 -70 84
-96 l39 -47 74 0 c40 0 73 3 73 6 0 4 -46 56 -102 116 l-101 109 34 37 c19 20
60 63 91 96 31 33 54 64 52 68 -3 4 -34 8 -69 8 l-63 0 -78 -86 -79 -87 -5
179 -5 179 -57 3 -58 3 0 -316z"/>
<path d="M6705 2247 c-3 -7 -4 -147 -3 -312 l3 -300 58 -3 57 -3 0 316 0 315
-55 0 c-36 0 -57 -5 -60 -13z"/>
<path d="M8280 2145 c0 -63 -2 -115 -5 -115 -2 0 -19 9 -37 20 -45 27 -137 27
-194 0 -69 -34 -114 -114 -114 -203 1 -86 47 -164 123 -204 47 -25 133 -23
180 5 46 27 47 27 47 2 0 -18 7 -20 60 -20 l60 0 0 315 0 315 -60 0 -60 0 0
-115z m-24 -209 c30 -30 34 -40 34 -85 0 -69 -36 -111 -101 -118 -80 -9 -139
41 -139 117 0 72 51 119 129 120 36 0 49 -6 77 -34z"/>
<path d="M9280 2230 c0 -5 7 -10 15 -10 11 0 15 -11 15 -40 0 -22 5 -40 10
-40 6 0 10 18 10 40 0 22 5 40 10 40 6 0 10 5 10 10 0 6 -16 10 -35 10 -19 0
-35 -4 -35 -10z"/>
<path d="M9360 2190 c0 -27 5 -50 10 -50 6 0 10 12 10 27 0 25 1 26 20 8 18
-16 20 -16 26 -1 9 24 24 19 24 -9 0 -14 5 -25 10 -25 6 0 10 23 10 50 0 55
-11 63 -40 28 l-19 -23 -16 23 c-25 34 -35 26 -35 -28z"/>
<path d="M1500 2111 c-111 -34 -170 -117 -170 -240 0 -77 21 -131 71 -180 67
-67 168 -81 254 -36 l48 26 -6 -51 c-12 -102 -76 -165 -157 -157 -25 3 -56 8
-70 12 -22 6 -28 2 -43 -30 -9 -19 -17 -40 -17 -45 0 -4 20 -16 45 -26 53 -20
154 -16 201 9 41 21 91 73 117 122 21 38 22 55 25 313 l3 272 -50 0 c-46 0
-51 -2 -51 -22 0 -20 -1 -20 -19 -4 -41 37 -124 54 -181 37z m104 -105 c143
-60 99 -288 -52 -273 -108 11 -158 150 -86 237 21 25 61 45 97 49 4 1 23 -5
41 -13z"/>
<path d="M2097 2096 c-36 -18 -47 -20 -47 -9 0 11 -12 13 -52 11 l-53 -3 0
-255 0 -255 50 0 50 0 5 186 c5 203 8 211 66 235 53 22 105 -2 130 -63 10 -23
14 -81 14 -198 l0 -166 48 3 47 3 5 186 c6 207 9 217 75 239 38 13 70 3 102
-32 21 -23 23 -33 25 -208 l3 -185 50 0 50 0 3 178 c1 109 -2 194 -9 220 -22
83 -123 148 -205 132 -18 -3 -55 -21 -82 -39 l-49 -33 -31 28 c-30 27 -87 49
-128 49 -11 0 -42 -11 -67 -24z"/>
<path d="M2941 2105 c-57 -18 -135 -95 -158 -155 -25 -64 -22 -161 7 -227 60
-138 226 -194 354 -119 l45 26 3 -22 c3 -20 9 -23 51 -23 26 0 47 3 47 8 0 4
0 120 0 257 l0 250 -50 0 c-47 0 -50 -1 -50 -27 0 -24 -1 -25 -17 -11 -56 49
-158 68 -232 43z m179 -125 c101 -79 84 -236 -31 -296 -94 -48 -218 39 -219
154 0 144 143 226 250 142z"/>
<path d="M1082 1843 l3 -258 50 0 50 0 3 258 2 257 -55 0 -55 0 2 -257z"/>
<path d="M4318 2065 c-3 -4 7 -41 22 -83 15 -42 49 -139 75 -214 l48 -138 52
0 52 0 48 135 c26 74 50 135 54 135 3 0 26 -60 51 -133 l45 -132 54 0 54 0 39
110 c82 231 108 307 108 316 0 6 -27 9 -62 7 l-61 -3 -39 -124 c-21 -69 -41
-127 -43 -130 -9 -8 -15 5 -57 125 -23 65 -47 122 -52 127 -6 4 -27 6 -46 5
l-34 -3 -50 -135 c-57 -154 -51 -156 -102 20 -15 52 -32 101 -37 108 -9 12
-108 18 -119 7z"/>
<path d="M5250 1990 l0 -79 -82 -3 -83 -3 0 -60 0 -60 83 -3 82 -3 0 -79 0
-80 60 0 60 0 0 80 0 80 80 0 c75 0 80 1 86 23 3 13 4 41 2 63 l-3 39 -82 3
-83 3 0 79 0 80 -60 0 -60 0 0 -80z"/>
<path d="M5627 2064 c-4 -4 -7 -103 -7 -221 l0 -213 59 0 59 0 4 130 c3 124 4
131 29 156 16 16 41 28 67 31 l42 6 0 58 c0 41 -4 59 -12 59 -23 -1 -93 -36
-108 -55 -14 -17 -15 -16 -20 16 -5 33 -6 34 -55 37 -28 2 -54 0 -58 -4z"/>
<path d="M7016 1960 l-110 -110 109 -110 c61 -60 115 -110 120 -110 6 0 60 50
120 110 l110 110 -110 110 c-60 61 -114 110 -119 110 -5 0 -59 -50 -120 -110z"/>
<path d="M7457 2064 c-4 -4 -7 -75 -7 -158 0 -129 3 -155 20 -191 30 -62 85
-90 180 -89 83 0 117 13 165 64 l30 31 0 172 0 172 -55 0 -55 0 -5 -153 c-6
-172 -10 -182 -80 -182 -70 0 -74 10 -80 182 l-5 153 -50 3 c-28 2 -54 0 -58
-4z"/>
<path d="M8975 2058 c-3 -8 -4 -106 -3 -218 l3 -205 60 0 60 0 2 115 c2 63 5
125 8 137 7 29 46 55 93 62 l37 6 3 59 3 58 -33 -7 c-42 -9 -81 -29 -99 -51
-13 -16 -14 -14 -19 17 -5 33 -6 34 -58 37 -36 2 -54 -1 -57 -10z"/>
<path d="M8645 2044 c-50 -18 -112 -77 -136 -129 -21 -46 -25 -135 -7 -186 13
-37 47 -89 59 -89 15 0 350 342 347 353 -2 7 -28 24 -58 40 -62 31 -138 35
-205 11z"/>
</g>
</svg>
