<svg xmlns="http://www.w3.org/2000/svg" id="Livello_1" data-name="Livello 1" viewBox="0 0 200 26"><defs><style>.cls-1{fill:#fff;}</style></defs><title>wl logo full</title><path class="cls-1" d="M60,8.93A7.46,7.46,0,0,1,63.71,7.8v4.48a7,7,0,0,0-4.32,1.14,4.35,4.35,0,0,0-1.48,3.66v8.34H53.22V8H57.7v3.34A7.07,7.07,0,0,1,60,8.93Z"></path><path class="cls-1" d="M78.86,25.42l-7.27-8.24v8.24H66.9V.11h4.69V15.32L78.2,8h5.68l-7.59,8.17,8.53,9.28Z"></path><path class="cls-1" d="M97.13.11h4.7V25.42h-4.7Z"></path><path class="cls-1" d="M131.2,24.93a6.13,6.13,0,0,1-2.76-2.34,6.71,6.71,0,0,1-1-3.62V8h4.68V18.68a2.78,2.78,0,0,0,.92,2.28,3.66,3.66,0,0,0,2.42.77A3.74,3.74,0,0,0,138,21a2.78,2.78,0,0,0,.93-2.28V8h4.7V19a6.55,6.55,0,0,1-1,3.62,6.15,6.15,0,0,1-2.77,2.34,10.44,10.44,0,0,1-4.34.82A10.33,10.33,0,0,1,131.2,24.93Z"></path><path class="cls-1" d="M151.21,24.59a8.64,8.64,0,0,1-3.09-3.28A9.45,9.45,0,0,1,147,16.65,9.44,9.44,0,0,1,148.12,12a8.73,8.73,0,0,1,3.09-3.26,7.9,7.9,0,0,1,4.21-1.18,7.73,7.73,0,0,1,3.34.69,6.61,6.61,0,0,1,2.44,1.93l0-10.07h4.7V25.42H161.2V23.19a6.83,6.83,0,0,1-2.44,1.91,7.91,7.91,0,0,1-3.34.68A7.82,7.82,0,0,1,151.21,24.59Zm8-3.46a4.77,4.77,0,0,0,1.8-1.82,5.28,5.28,0,0,0,.66-2.66,5.23,5.23,0,0,0-.66-2.64,4.67,4.67,0,0,0-1.8-1.81,5.08,5.08,0,0,0-2.55-.64,5.14,5.14,0,0,0-2.55.64A4.66,4.66,0,0,0,152.33,14a5.13,5.13,0,0,0-.67,2.64,5.18,5.18,0,0,0,.67,2.66,4.75,4.75,0,0,0,1.82,1.82,5.14,5.14,0,0,0,2.55.65A5.09,5.09,0,0,0,159.25,21.13Z"></path><path class="cls-1" d="M196.33,8.93A7.42,7.42,0,0,1,200,7.8v4.48a7,7,0,0,0-4.33,1.14,4.34,4.34,0,0,0-1.47,3.66v8.34h-4.7V8H194v3.34A6.88,6.88,0,0,1,196.33,8.93Z"></path><rect class="cls-1" x="108.23" y="10.27" width="12.86" height="12.86" transform="translate(21.77 85.97) rotate(-45)"></rect><polygon class="cls-1" points="49.48 14.45 42.74 14.45 42.74 7.7 38.04 7.7 38.04 14.45 31.29 14.45 31.29 19.14 38.04 19.14 38.04 25.89 42.74 25.89 42.74 19.14 49.48 19.14 49.48 14.45"></polygon><path class="cls-1" d="M179.74,8.08a10.1,10.1,0,0,0-7.14,17.24L186.88,11A10,10,0,0,0,179.74,8.08Z"></path><path class="cls-1" d="M28.67,8,22.53,25.43H18.47L14.34,13.72,10.17,25.43H6.08L0,8H4.93L8.47,19.54,12.67,8H16L20.15,19.5,23.71,8Z"></path></svg>